<svg width="28" height="18" viewBox="0 0 28 18" fill="none" xmlns="http://www.w3.org/2000/svg">
<path d="M17.3848 1.79565H9.85156V15.5626H17.3848V1.79565Z" fill="#F26122"/>
<path d="M10.6678 8.67932C10.6534 6.0238 11.8485 3.50903 13.9072 1.85729C10.3837 -0.94092 5.32248 -0.534575 2.28106 2.79059C-0.760354 6.1159 -0.760354 11.2432 2.28106 14.5685C5.32248 17.8934 10.3837 18.3001 13.9072 15.5015C11.8485 13.85 10.6534 11.3353 10.6678 8.67932Z" fill="#EA1D25"/>
<path d="M27.8166 8.67902C27.8136 12.0019 25.9354 15.0324 22.976 16.4847C20.0177 17.937 16.4973 17.5572 13.9082 15.5062C17.6369 12.5411 18.2821 7.08679 15.3514 3.31783C14.9309 2.77197 14.4467 2.28 13.9082 1.85259C16.4973 -0.198687 20.0177 -0.578723 22.976 0.873743C25.9354 2.32622 27.8136 5.35669 27.8166 8.67902Z" fill="#F69E1E"/>
</svg>
