<svg width="54" height="13" viewBox="0 0 54 13" fill="none" xmlns="http://www.w3.org/2000/svg">
<g clip-path="url(#clip0_606_883)">
<path fill-rule="evenodd" clip-rule="evenodd" d="M4.71234 3.06006H8.40232C10.3835 3.06006 11.1293 4.05671 11.0141 5.52092C10.8236 7.93825 9.35291 9.27564 7.4022 9.27564H6.41731C6.14966 9.27564 5.96964 9.45169 5.89725 9.92871L5.4791 12.7019C5.45148 12.8818 5.35623 12.9859 5.21335 13.0001H2.89497C2.67685 13.0001 2.5997 12.8344 2.65685 12.4757L4.07036 3.58536C4.1256 3.22948 4.32182 3.06006 4.71234 3.06006Z" fill="#009EE3"/>
<path fill-rule="evenodd" clip-rule="evenodd" d="M20.732 2.89526C21.9769 2.89526 23.1257 3.56632 22.9685 5.23877C22.778 7.22639 21.7064 8.32621 20.0158 8.33094H18.5384C18.326 8.33094 18.2231 8.5032 18.1679 8.85624L17.8822 10.6612C17.8393 10.9338 17.6983 11.0682 17.4907 11.0682H16.1162C15.8971 11.0682 15.8209 10.929 15.8695 10.6177L17.0039 3.38365C17.0601 3.02777 17.1944 2.89526 17.4392 2.89526H20.7292H20.732ZM18.4937 6.76829H19.6128C20.3129 6.74179 20.7777 6.26003 20.8244 5.39115C20.853 4.85449 20.4882 4.47022 19.9081 4.47306L18.8547 4.47779L18.4937 6.76829ZM26.7052 10.5145C26.8309 10.4009 26.9585 10.3422 26.9404 10.4823L26.8957 10.8174C26.8728 10.9925 26.9423 11.0852 27.1062 11.0852H28.3273C28.533 11.0852 28.633 11.0029 28.6835 10.6867L29.436 5.99406C29.4741 5.75839 29.416 5.64292 29.2359 5.64292H27.8929C27.772 5.64292 27.7129 5.71012 27.6815 5.89373L27.6319 6.18241C27.6062 6.3329 27.5367 6.35941 27.4719 6.20797C27.2443 5.67226 26.6632 5.43185 25.8527 5.45078C23.9696 5.48959 22.6999 6.91026 22.5637 8.7313C22.4589 10.1397 23.4743 11.2461 24.8135 11.2461C25.785 11.2461 26.2194 10.9622 26.709 10.5173L26.7052 10.5145ZM25.6822 9.79232C24.8716 9.79232 24.3068 9.14965 24.4239 8.36217C24.5411 7.5747 25.2993 6.93203 26.1098 6.93203C26.9204 6.93203 27.4852 7.5747 27.3681 8.36217C27.2509 9.14965 26.4937 9.79232 25.6822 9.79232ZM31.8258 5.62777H30.5875C30.3323 5.62777 30.2284 5.81707 30.3094 6.0499L31.8467 10.523L30.3389 12.6517C30.2123 12.8296 30.3104 12.9914 30.4885 12.9914H31.8801C31.9612 13.0008 32.0433 12.9867 32.1166 12.951C32.1899 12.9152 32.2513 12.8593 32.2935 12.7898L37.0217 6.05085C37.1674 5.84357 37.0988 5.62588 36.8597 5.62588H35.5424C35.3167 5.62588 35.2262 5.71485 35.0967 5.90131L33.125 8.74077L32.2439 5.89468C32.1925 5.72242 32.0639 5.62777 31.8267 5.62777H31.8258Z" fill="#113984"/>
<path fill-rule="evenodd" clip-rule="evenodd" d="M41.9401 2.89521C43.185 2.89521 44.3337 3.56627 44.1765 5.23871C43.986 7.22633 42.9145 8.32615 41.2238 8.33088H39.7474C39.535 8.33088 39.4321 8.50314 39.3769 8.85618L39.0911 10.6611C39.0483 10.9337 38.9073 11.0681 38.6997 11.0681H37.3252C37.1061 11.0681 37.0299 10.929 37.0785 10.6176L38.2148 3.3817C38.271 3.02582 38.4053 2.89331 38.6501 2.89331H41.9401V2.89521ZM39.7017 6.76823H40.8209C41.521 6.74173 41.9858 6.25997 42.0325 5.39109C42.061 4.85443 41.6962 4.47016 41.1162 4.473L40.0627 4.47773L39.7017 6.76823ZM47.9132 10.5144C48.0389 10.4008 48.1666 10.3422 48.1485 10.4822L48.1037 10.8173C48.0808 10.9924 48.1504 11.0852 48.3142 11.0852H49.5353C49.741 11.0852 49.841 11.0028 49.8915 10.6867L50.644 5.994C50.6821 5.75833 50.624 5.64286 50.444 5.64286H49.1029C48.9819 5.64286 48.9228 5.71006 48.8914 5.89368L48.8419 6.18235C48.8162 6.33284 48.7466 6.35935 48.6819 6.20791C48.4542 5.6722 47.8732 5.43179 47.0626 5.45072C45.1795 5.48953 43.9098 6.9102 43.7736 8.73124C43.6688 10.1396 44.6842 11.2461 46.0234 11.2461C46.995 11.2461 47.4293 10.9621 47.9189 10.5173L47.9132 10.5144ZM46.8912 9.79226C46.0806 9.79226 45.5157 9.14959 45.6329 8.36212C45.7501 7.57464 46.5083 6.93197 47.3188 6.93197C48.1294 6.93197 48.6942 7.57464 48.5771 8.36212C48.4599 9.14959 47.7017 9.79226 46.8912 9.79226ZM52.5233 11.0927H51.1136C51.0891 11.0938 51.0646 11.0895 51.042 11.0801C51.0193 11.0707 50.999 11.0565 50.9825 11.0384C50.9661 11.0203 50.9538 10.9988 50.9467 10.9755C50.9395 10.9522 50.9377 10.9276 50.9412 10.9034L52.1794 3.10816C52.1913 3.05496 52.2208 3.0073 52.2634 2.97293C52.3059 2.93856 52.3589 2.91951 52.4137 2.91887H53.8234C53.848 2.91778 53.8724 2.92208 53.8951 2.93147C53.9177 2.94086 53.938 2.95511 53.9545 2.97319C53.971 2.99128 53.9832 3.01275 53.9904 3.03608C53.9975 3.05942 53.9994 3.08403 53.9958 3.10816L52.7576 10.9034C52.7462 10.957 52.7167 11.0051 52.6742 11.0398C52.6316 11.0746 52.5784 11.0939 52.5233 11.0946V11.0927Z" fill="#009EE3"/>
<path fill-rule="evenodd" clip-rule="evenodd" d="M2.40394 0H6.09773C7.13785 0 8.37229 0.033127 9.19715 0.75719C9.74865 1.24084 10.0382 2.01034 9.97153 2.83946C9.74484 5.64201 8.05797 7.21223 5.79483 7.21223H3.97366C3.66314 7.21223 3.45836 7.41667 3.37073 7.96942L2.86209 11.1875C2.82876 11.3957 2.73827 11.5187 2.57634 11.5339H0.297019C0.0446073 11.5339 -0.0449283 11.3446 0.020794 10.9262L1.65909 0.61143C1.72481 0.196868 1.95436 0 2.40394 0Z" fill="#113984"/>
<path fill-rule="evenodd" clip-rule="evenodd" d="M3.42383 7.64292L4.06867 3.58533C4.12487 3.22945 4.32108 3.05908 4.71161 3.05908H8.40159C9.01214 3.05908 9.50649 3.15373 9.8932 3.32883C9.52268 5.82377 7.89867 7.20943 5.77269 7.20943H3.95437C3.71053 7.21037 3.53146 7.33153 3.42383 7.64292Z" fill="#172C70"/>
</g>
<defs>
<clipPath id="clip0_606_883">
<rect width="54" height="13" fill="white"/>
</clipPath>
</defs>
</svg>
