<svg width="46" height="15" viewBox="0 0 46 15" fill="none" xmlns="http://www.w3.org/2000/svg">
<path fill-rule="evenodd" clip-rule="evenodd" d="M32.8745 10.1468C32.8839 7.74466 30.9334 6.70755 29.4191 5.9017C28.4607 5.39209 27.6773 4.9753 27.6773 4.36479C27.6773 3.84442 28.1734 3.29347 29.2291 3.1512C30.4842 3.02513 31.7505 3.24839 32.8895 3.79764L33.5419 0.646445C32.4309 0.223289 31.2535 0.00450713 30.0667 0C26.4054 0 23.8606 1.98525 23.8606 4.82132C23.8606 6.91728 25.7072 8.08322 27.1036 8.77645C28.5 9.46976 29.0428 9.95773 29.0269 10.588C29.0269 11.5649 27.8795 12.006 26.8088 12.0222C25.4882 12.0393 24.1854 11.7143 23.0229 11.0768L22.3556 14.228C23.6706 14.7493 25.0717 15.0113 26.4831 14.9996C30.3765 14.9996 32.9372 13.0458 32.9522 10.0207L32.8745 10.1468ZM22.8058 0.253L19.7032 14.8268H15.9801L19.0827 0.253H22.8058ZM38.4134 9.7056L40.3676 4.23882L41.501 9.7056H38.4134ZM46 14.8744H42.5558L42.1056 12.7001H37.4362L36.6753 14.8744H32.766L38.3357 1.37122C38.5921 0.728374 39.2033 0.306113 39.8875 0.299815H42.9901L46 14.8744ZM11.5578 14.779L17.5777 0.20528H13.5438L9.68125 10.1152L8.12949 1.68633C7.99191 0.829208 7.26189 0.201678 6.40738 0.20528H0.0935987L0 0.630236C1.26631 0.882331 2.49705 1.29469 3.66135 1.85919C4.15739 2.09598 4.49339 2.58128 4.54581 3.13586L7.50897 14.779H11.5578Z" fill="#212B36"/>
</svg>
