<svg width="17" height="10" viewBox="0 0 17 10" fill="none" xmlns="http://www.w3.org/2000/svg">
<path d="M0.336412 8.01843L7.87203 0.253456C7.96174 0.16129 8.05893 0.0961594 8.16359 0.0580641C8.26825 0.0193544 8.38039 -3.76775e-07 8.5 -3.71547e-07C8.61961 -3.66318e-07 8.73175 0.0193545 8.83641 0.0580641C8.94107 0.0961594 9.03826 0.16129 9.12797 0.253456L16.686 8.01843C16.8953 8.23349 17 8.5023 17 8.82488C17 9.14746 16.8879 9.42396 16.6636 9.65438C16.4393 9.88479 16.1777 10 15.8786 10C15.5796 10 15.3179 9.88479 15.0937 9.65438L8.5 2.88018L1.90633 9.65438C1.69701 9.86943 1.43924 9.97696 1.13303 9.97696C0.826227 9.97696 0.560686 9.86175 0.336412 9.63133C0.112136 9.40092 -3.99177e-07 9.1321 -3.85748e-07 8.82488C-3.72319e-07 8.51766 0.112136 8.24885 0.336412 8.01843Z" fill="#212B36"/>
</svg>
