<svg width="11" height="11" viewBox="0 0 11 11" fill="none" xmlns="http://www.w3.org/2000/svg">
<path fill-rule="evenodd" clip-rule="evenodd" d="M8.43066 6.4845L10.1581 8.14197C10.5153 8.48474 10.5153 9.04236 10.1582 9.38513L9.72625 9.79956C9.01686 10.4802 7.52613 10.4365 6.53417 10.2528C5.63173 10.0856 3.89261 9.58899 2.3846 8.14197C0.873549 6.69202 0.332354 5.00964 0.144239 4.13586C-0.150927 2.76477 0.013934 1.57898 0.574494 1.04102L1.00632 0.626709C1.36347 0.283936 1.9447 0.283936 2.30191 0.626709L4.02935 2.28418C4.38656 2.62695 4.38656 3.18469 4.02935 3.52734L3.59748 3.94177C3.24027 4.28455 3.24027 4.84216 3.59748 5.18494L5.40619 6.89746C5.76479 7.24158 6.34595 7.24158 6.70321 6.8988L7.13509 6.4845C7.49316 6.14087 8.07266 6.14087 8.43066 6.4845ZM1.87039 1.04077C1.75129 0.926514 1.55759 0.926514 1.43851 1.04077L1.22363 1.24695L3.38299 3.31885L3.59785 3.11267C3.71693 2.99841 3.71693 2.81262 3.59785 2.69836L1.87039 1.04077ZM6.64984 9.67761C5.81601 9.52319 4.2092 9.06433 2.81632 7.72791C1.41777 6.38586 0.916525 4.82727 0.742215 4.01758C0.511316 2.94507 0.607451 2.13892 0.831651 1.70056L2.97218 3.75452C2.57935 4.32312 2.6439 5.09912 3.16693 5.60095L4.97564 7.31348C5.49716 7.81396 6.30536 7.87622 6.89854 7.49902L9.0408 9.55457C8.38799 9.87219 7.37278 9.81152 6.64984 9.67761ZM9.51186 9.177L9.72673 8.97083C9.84578 8.85657 9.84578 8.67065 9.72671 8.5564L7.99926 6.89893C7.87989 6.7843 7.68672 6.7843 7.56739 6.89893L7.35254 7.10498L9.51186 9.177ZM6.40658 0.369629C6.25862 0.369629 6.13867 0.4823 6.13867 0.621216C6.13867 0.760132 6.25862 0.872803 6.40658 0.872803C8.32703 0.872803 9.88944 2.34009 9.88944 4.14355C9.88944 4.28247 10.0094 4.39514 10.1573 4.39514C10.3053 4.39514 10.4253 4.28247 10.4253 4.14355C10.4253 2.06262 8.62248 0.369629 6.40658 0.369629ZM6.13867 1.92078C6.13867 1.79578 6.2481 1.69434 6.38308 1.69434C7.86554 1.69434 9.07161 2.81201 9.07161 4.18591C9.07161 4.31091 8.96219 4.41235 8.8272 4.41235C8.69222 4.41235 8.5828 4.31091 8.5828 4.18591C8.5828 3.06177 7.596 2.14734 6.38308 2.14734C6.2481 2.14734 6.13867 2.0459 6.13867 1.92078ZM6.33608 3.01855C6.22706 3.01855 6.13867 3.09839 6.13867 3.19678C6.13867 3.29529 6.22706 3.375 6.33608 3.375C6.88036 3.375 7.32315 3.7749 7.32315 4.26624C7.32315 4.36475 7.41154 4.44458 7.52056 4.44458C7.62959 4.44458 7.71797 4.36475 7.71797 4.26624C7.71799 3.57825 7.09806 3.01855 6.33608 3.01855ZM6.13867 4.39001C6.13867 4.36389 6.16393 4.34277 6.19509 4.34277C6.28841 4.34277 6.36434 4.40637 6.36434 4.48462C6.36434 4.51074 6.33908 4.53198 6.30792 4.53198C6.27676 4.53198 6.2515 4.51074 6.2515 4.48462C6.2515 4.45862 6.2262 4.43738 6.19509 4.43738C6.16393 4.43738 6.13867 4.41614 6.13867 4.39001Z" fill="white"/>
</svg>
