<svg width="24" height="24" viewBox="0 0 24 24" fill="none" xmlns="http://www.w3.org/2000/svg">
<path d="M3.56301 19.937C3.4304 19.937 3.30323 19.9897 3.20946 20.0835C3.11569 20.1772 3.06301 20.3044 3.06301 20.437C3.06301 20.5696 3.11569 20.6968 3.20946 20.7906C3.30323 20.8843 3.4304 20.937 3.56301 20.937L20.437 20.939C20.5696 20.939 20.6968 20.8863 20.7906 20.7926C20.8843 20.6988 20.937 20.5716 20.937 20.439C20.937 20.3064 20.8843 20.1792 20.7906 20.0855C20.6968 19.9917 20.5696 19.939 20.437 19.939L3.56301 19.937ZM3.56301 11.5C3.4304 11.5 3.30323 11.5527 3.20946 11.6465C3.11569 11.7402 3.06301 11.8674 3.06301 12C3.06301 12.1326 3.11569 12.2598 3.20946 12.3536C3.30323 12.4473 3.4304 12.5 3.56301 12.5L13.563 12.501C13.6956 12.501 13.8228 12.4483 13.9166 12.3546C14.0103 12.2608 14.063 12.1336 14.063 12.001C14.063 11.8684 14.0103 11.7412 13.9166 11.6475C13.8228 11.5537 13.6956 11.501 13.563 11.501L3.56301 11.5ZM3.56301 3.06201C3.4304 3.06201 3.30323 3.11469 3.20946 3.20846C3.11569 3.30223 3.06301 3.4294 3.06301 3.56201C3.06301 3.69462 3.11569 3.8218 3.20946 3.91557C3.30323 4.00933 3.4304 4.06201 3.56301 4.06201L20.437 4.06301C20.5696 4.06301 20.6968 4.01033 20.7906 3.91657C20.8843 3.8228 20.937 3.69562 20.937 3.56301C20.937 3.4304 20.8843 3.30323 20.7906 3.20946C20.6968 3.11569 20.5696 3.06301 20.437 3.06301L3.56301 3.06201Z" fill="black"/>
</svg>
