<svg width="36" height="36" viewBox="0 0 36 36" fill="none" xmlns="http://www.w3.org/2000/svg">
<path d="M33.4829 18.162C32.9722 18.162 32.5177 17.9782 32.1193 17.6105C31.7197 17.244 31.488 16.7895 31.4241 16.2469C31.0092 13.2785 29.7567 10.7486 27.6666 8.65726C25.5753 6.56722 23.0455 5.31473 20.077 4.89978C19.5344 4.83595 19.0799 4.61252 18.7134 4.22949C18.3457 3.84647 18.1619 3.38365 18.1619 2.84103C18.1619 2.29841 18.3534 1.84325 18.7364 1.47554C19.1195 1.10912 19.5663 0.957822 20.077 1.02166C24.0988 1.46852 27.53 3.11234 30.3708 5.9531C33.2116 8.79387 34.8554 12.2251 35.3022 16.2469C35.3661 16.7576 35.2142 17.2045 34.8464 17.5875C34.48 17.9705 34.0255 18.162 33.4829 18.162ZM25.4872 18.162C25.0723 18.162 24.7052 18.0184 24.386 17.7311C24.0669 17.4438 23.8275 17.0608 23.6679 16.582C23.4125 15.6564 22.9261 14.8342 22.2085 14.1154C21.4897 13.3978 20.6675 12.9114 19.7419 12.656C19.2631 12.4964 18.8801 12.2571 18.5928 11.9379C18.3055 11.6187 18.1619 11.2357 18.1619 10.7888C18.1619 10.1504 18.3853 9.63142 18.8322 9.23179C19.279 8.83345 19.7738 8.69811 20.3164 8.82579C22.1039 9.24073 23.6443 10.0942 24.9376 11.3863C26.2297 12.6797 27.0832 14.2201 27.4981 16.0075C27.6258 16.5501 27.4822 17.0449 27.0672 17.4917C26.6523 17.9386 26.1256 18.162 25.4872 18.162ZM33.3871 35.3981C29.2696 35.3981 25.2561 34.4801 21.3467 32.6442C17.4361 30.8095 13.9729 28.3837 10.9572 25.3667C7.94024 22.351 5.51442 18.8878 3.67973 14.9772C1.84376 11.0678 0.925781 7.0543 0.925781 2.93678C0.925781 2.36225 1.11729 1.88346 1.50032 1.50044C1.88334 1.11742 2.36212 0.925903 2.93666 0.925903H10.6929C11.1398 0.925903 11.5388 1.06954 11.8899 1.35681C12.241 1.64407 12.4484 2.01114 12.5123 2.458L13.7571 9.16093C13.8209 9.6078 13.8133 10.0144 13.7341 10.3809C13.6537 10.7486 13.4698 11.0761 13.1826 11.3633L8.58628 16.0554C9.92686 18.3535 11.6026 20.508 13.6135 22.5189C15.6244 24.5298 17.8427 26.2694 20.2685 27.7376L24.7691 23.2371C25.0563 22.9498 25.4317 22.7341 25.8952 22.5898C26.3573 22.4468 26.8119 22.4072 27.2587 22.471L33.8659 23.8116C34.3128 23.9074 34.6798 24.1225 34.9671 24.457C35.2544 24.7928 35.398 25.1841 35.398 25.631V33.3872C35.398 33.9618 35.2065 34.4406 34.8235 34.8236C34.4404 35.2066 33.9617 35.3981 33.3871 35.3981Z" fill="white"/>
</svg>
