<svg width="25" height="25" viewBox="0 0 25 25" fill="none" xmlns="http://www.w3.org/2000/svg">
<path d="M9.2451 3.02092L18.0211 11.7709C18.1253 11.8751 18.1993 11.9879 18.243 12.1095C18.2868 12.231 18.3083 12.3612 18.3076 12.5001C18.3076 12.639 18.2861 12.7692 18.243 12.8907C18.2 13.0122 18.126 13.1251 18.0211 13.2292L9.2451 22.0053C9.00205 22.2483 8.69823 22.3699 8.33364 22.3699C7.96906 22.3699 7.65656 22.2397 7.39614 21.9792C7.13573 21.7188 7.00552 21.415 7.00552 21.0678C7.00552 20.7206 7.13573 20.4167 7.39614 20.1563L15.0524 12.5001L7.39614 4.84383C7.15309 4.60078 7.03156 4.30113 7.03156 3.94487C7.03156 3.58863 7.16177 3.28064 7.42219 3.02092C7.6826 2.7605 7.98642 2.63029 8.33364 2.63029C8.68087 2.63029 8.98469 2.7605 9.2451 3.02092Z" fill="white"/>
</svg>
