<svg width="83" height="83" viewBox="0 0 83 83" fill="none" xmlns="http://www.w3.org/2000/svg">
<circle cx="41.5" cy="41.5" r="41.5" fill="#B0CC0D"/>
<path d="M31.4511 31.3037C31.2133 31.3037 30.9852 31.3997 30.817 31.5705C30.6488 31.7412 30.5544 31.9729 30.5544 32.2144V34.0359H28.761C28.5231 34.0359 28.2951 34.1318 28.1269 34.3026C27.9587 34.4734 27.8643 34.705 27.8643 34.9466C27.8643 35.1881 27.9587 35.4198 28.1269 35.5906C28.2951 35.7613 28.5231 35.8573 28.761 35.8573H31.4511C31.6889 35.8573 31.917 35.7613 32.0851 35.5906C32.2533 35.4198 32.3478 35.1881 32.3478 34.9466V32.2144C32.3478 31.9729 32.2533 31.7412 32.0851 31.5705C31.917 31.3997 31.6889 31.3037 31.4511 31.3037Z" fill="white"/>
<path d="M31.4513 37.6787H27.8645C27.6267 37.6787 27.3986 37.7747 27.2304 37.9455C27.0622 38.1162 26.9678 38.3479 26.9678 38.5894V42.2323C26.9678 42.4738 27.0622 42.7055 27.2304 42.8763C27.3986 43.0471 27.6267 43.143 27.8645 43.143H31.4513C31.6891 43.143 31.9172 43.0471 32.0854 42.8763C32.2535 42.7055 32.348 42.4738 32.348 42.2323V38.5894C32.348 38.3479 32.2535 38.1162 32.0854 37.9455C31.9172 37.7747 31.6891 37.6787 31.4513 37.6787ZM30.5546 41.3216H28.7612V39.5001H30.5546V41.3216Z" fill="white"/>
<path d="M31.4513 44.9644H27.8645C27.6267 44.9644 27.3986 45.0603 27.2304 45.2311C27.0622 45.4019 26.9678 45.6335 26.9678 45.8751V49.5179C26.9678 49.7595 27.0622 49.9911 27.2304 50.1619C27.3986 50.3327 27.6267 50.4287 27.8645 50.4287H31.4513C31.6891 50.4287 31.9172 50.3327 32.0854 50.1619C32.2535 49.9911 32.348 49.7595 32.348 49.5179V45.8751C32.348 45.6335 32.2535 45.4019 32.0854 45.2311C31.9172 45.0603 31.6891 44.9644 31.4513 44.9644ZM30.5546 48.6072H28.7612V46.7858H30.5546V48.6072Z" fill="white"/>
<path d="M31.4513 52.25H27.8645C27.6267 52.25 27.3986 52.3459 27.2304 52.5167C27.0622 52.6875 26.9678 52.9192 26.9678 53.1607V56.8036C26.9678 57.0451 27.0622 57.2768 27.2304 57.4476C27.3986 57.6184 27.6267 57.7143 27.8645 57.7143H31.4513C31.6891 57.7143 31.9172 57.6184 32.0854 57.4476C32.2535 57.2768 32.348 57.0451 32.348 56.8036V53.1607C32.348 52.9192 32.2535 52.6875 32.0854 52.5167C31.9172 52.3459 31.6891 52.25 31.4513 52.25ZM30.5546 55.8929H28.7612V54.0714H30.5546V55.8929Z" fill="white"/>
<path d="M44.0042 32.2144H35.9338C35.696 32.2144 35.4679 32.3103 35.2997 32.4811C35.1316 32.6519 35.0371 32.8835 35.0371 33.1251C35.0371 33.3666 35.1316 33.5983 35.2997 33.769C35.4679 33.9398 35.696 34.0358 35.9338 34.0358H44.0042C44.242 34.0358 44.4701 33.9398 44.6382 33.769C44.8064 33.5983 44.9009 33.3666 44.9009 33.1251C44.9009 32.8835 44.8064 32.6519 44.6382 32.4811C44.4701 32.3103 44.242 32.2144 44.0042 32.2144Z" fill="white"/>
<path d="M44.0042 39.4995H35.9338C35.696 39.4995 35.4679 39.5955 35.2997 39.7663C35.1316 39.937 35.0371 40.1687 35.0371 40.4102C35.0371 40.6518 35.1316 40.8834 35.2997 41.0542C35.4679 41.225 35.696 41.3209 35.9338 41.3209H44.0042C44.242 41.3209 44.4701 41.225 44.6382 41.0542C44.8064 40.8834 44.9009 40.6518 44.9009 40.4102C44.9009 40.1687 44.8064 39.937 44.6382 39.7663C44.4701 39.5955 44.242 39.4995 44.0042 39.4995Z" fill="white"/>
<path d="M42.2108 46.7856H35.9338C35.696 46.7856 35.4679 46.8816 35.2997 47.0524C35.1316 47.2232 35.0371 47.4548 35.0371 47.6964C35.0371 47.9379 35.1316 48.1695 35.2997 48.3403C35.4679 48.5111 35.696 48.6071 35.9338 48.6071H42.2108C42.4486 48.6071 42.6767 48.5111 42.8448 48.3403C43.013 48.1695 43.1075 47.9379 43.1075 47.6964C43.1075 47.4548 43.013 47.2232 42.8448 47.0524C42.6767 46.8816 42.4486 46.7856 42.2108 46.7856Z" fill="white"/>
<path d="M42.2108 54.0713H35.9338C35.696 54.0713 35.4679 54.1672 35.2997 54.338C35.1316 54.5088 35.0371 54.7405 35.0371 54.982C35.0371 55.2235 35.1316 55.4552 35.2997 55.626C35.4679 55.7968 35.696 55.8927 35.9338 55.8927H42.2108C42.4486 55.8927 42.6767 55.7968 42.8448 55.626C43.013 55.4552 43.1075 55.2235 43.1075 54.982C43.1075 54.7405 43.013 54.5088 42.8448 54.338C42.6767 54.1672 42.4486 54.0713 42.2108 54.0713Z" fill="white"/>
<path d="M65.1957 48.1426C64.9464 47.2211 64.4677 46.3804 63.8056 45.7014C63.1435 45.0225 62.3204 44.5281 61.4156 44.2661C62.4648 43.6738 63.2875 42.7404 63.7516 41.616L64.4712 39.8771C64.5633 39.6545 64.5646 39.4038 64.4747 39.1801C64.3848 38.9565 64.2112 38.7784 63.9919 38.6848L62.2799 37.9539C60.9645 37.3925 59.4834 37.3848 58.1624 37.9324C56.8414 38.48 55.7886 39.5381 55.2357 40.874L55.1822 41.0034C54.8901 40.5589 54.5555 40.1446 54.1835 39.7666C54.094 39.6759 53.9865 39.6056 53.8682 39.5602V23.107C53.8672 22.1412 53.4889 21.2152 52.8165 20.5323C52.1441 19.8493 51.2324 19.4652 50.2814 19.4641H40.1935C40.0152 19.4639 39.8442 19.3919 39.7181 19.2638C39.592 19.1358 39.5211 18.9622 39.5209 18.7811V17.7041C39.5191 17.2084 39.4206 16.7178 39.2311 16.2609C39.0416 15.804 38.7649 15.3898 38.4169 15.0421C38.0814 14.7046 37.6828 14.4385 37.2446 14.2596C36.8064 14.0808 36.3374 13.9926 35.8652 14.0005C34.9275 14.0234 34.0355 14.4166 33.3786 15.0967C32.7218 15.7767 32.3518 16.69 32.3473 17.6427V18.7811C32.3471 18.9622 32.2762 19.1358 32.1501 19.2638C32.024 19.3919 31.8531 19.4639 31.6748 19.4641H21.5868C20.6359 19.4652 19.7242 19.8493 19.0517 20.5323C18.3793 21.2152 18.0011 22.1412 18 23.107V61.3571C18.0011 62.3229 18.3793 63.2488 19.0517 63.9318C19.7242 64.6147 20.6359 64.9989 21.5868 64.9999H50.2814C50.5598 64.9995 50.8372 64.9663 51.1081 64.9009C51.8475 65.0593 52.6142 65.0274 53.3384 64.8081C54.0626 64.5888 54.7213 64.1891 55.2545 63.6453L55.3423 63.556L55.4301 63.6453C55.8521 64.0761 56.3541 64.4177 56.907 64.6502C57.4599 64.8828 58.0527 65.0016 58.6512 64.9999C59.4373 64.9977 60.2097 64.7898 60.8938 64.3964C61.578 64.003 62.1509 63.4374 62.5573 62.7539L63.4064 61.3167C64.5599 59.3551 65.3128 57.1778 65.6202 54.9144C65.9276 52.6511 65.7832 50.3481 65.1957 48.1426ZM56.8886 41.5798C57.0711 41.1388 57.3374 40.7386 57.6722 40.4021C58.007 40.0656 58.4037 39.7994 58.8399 39.6186C59.276 39.4379 59.7429 39.3461 60.2139 39.3486C60.6849 39.3511 61.1508 39.4478 61.5851 39.6332L62.4706 40.0111L62.0984 40.9105C61.9159 41.3515 61.6496 41.7517 61.3148 42.0882C60.98 42.4247 60.5833 42.6909 60.1471 42.8717C59.711 43.0524 59.2441 43.1442 58.7731 43.1417C58.3021 43.1392 57.8362 43.0425 57.4019 42.8571L56.5164 42.4792L56.8886 41.5798ZM56.707 44.536C56.8953 44.6161 57.0879 44.6852 57.2839 44.743C57.0168 44.8933 56.7627 45.0661 56.5241 45.2596C56.5156 44.9819 56.4932 44.7048 56.4568 44.4294L56.707 44.536ZM54.7263 45.7826L54.6241 45.6787C54.3914 45.4429 54.1384 45.2287 53.8682 45.0385V42.3016C54.4811 43.3526 54.7793 44.5622 54.7263 45.7826ZM52.0748 23.107V44.2147C51.6447 44.1074 51.2033 44.0533 50.7604 44.0535C50.5993 44.0535 50.4397 44.0611 50.2814 44.0753V24.0177C50.2814 23.7761 50.1869 23.5445 50.0188 23.3737C49.8506 23.2029 49.6225 23.107 49.3847 23.107H44.9012C44.9018 22.4672 44.7355 21.8388 44.4192 21.2855H50.2814C50.7569 21.2861 51.2127 21.4782 51.5489 21.8197C51.8851 22.1611 52.0743 22.6241 52.0748 23.107ZM46.3661 59.5356H23.3802V24.9284H27.4496C27.7643 25.4818 28.2168 25.9414 28.7617 26.2611C29.3066 26.5808 29.9246 26.7493 30.5539 26.7498H41.3144C41.9437 26.7494 42.5619 26.5809 43.1068 26.2612C43.6518 25.9415 44.1044 25.4819 44.4192 24.9284H48.488V44.5597C47.7606 44.898 47.1152 45.3942 46.597 46.0132C46.0789 46.6322 45.7006 47.3591 45.489 48.1427C44.481 51.9296 44.7908 55.9538 46.3661 59.5356ZM34.1407 18.7811V17.6427C34.1428 17.1663 34.3276 16.7096 34.6559 16.3695C34.9843 16.0294 35.4303 15.8327 35.8991 15.8212C36.1331 15.8174 36.3655 15.8615 36.5823 15.951C36.7991 16.0404 36.9959 16.1733 37.1609 16.3418C37.3393 16.5196 37.4812 16.7316 37.5784 16.9654C37.6757 17.1992 37.7264 17.4503 37.7275 17.7041V18.7811C37.7283 19.4451 37.9883 20.0816 38.4506 20.5512C38.9129 21.0207 39.5397 21.2848 40.1935 21.2855H41.3144C41.79 21.2855 42.2462 21.4774 42.5825 21.819C42.9188 22.1606 43.1078 22.6239 43.1078 23.107C43.1078 23.59 42.9188 24.0533 42.5825 24.3949C42.2462 24.7365 41.79 24.9284 41.3144 24.9284H30.5539C30.0782 24.9284 29.6221 24.7365 29.2857 24.3949C28.9494 24.0533 28.7605 23.59 28.7605 23.107C28.7605 22.6239 28.9494 22.1606 29.2857 21.819C29.6221 21.4774 30.0782 21.2855 30.5539 21.2855H31.6748C32.3285 21.2848 32.9553 21.0207 33.4176 20.5512C33.8799 20.0816 34.14 19.4451 34.1407 18.7811ZM19.7934 61.3571V23.107C19.794 22.6241 19.9831 22.1611 20.3193 21.8197C20.6555 21.4782 21.1114 21.2861 21.5868 21.2855H27.4496C27.1331 21.8387 26.9666 22.4672 26.9671 23.107H22.4835C22.2457 23.107 22.0176 23.2029 21.8495 23.3737C21.6813 23.5445 21.5868 23.7761 21.5868 24.0177V60.4464C21.5868 60.6879 21.6813 60.9195 21.8495 61.0903C22.0176 61.2611 22.2457 61.3571 22.4835 61.3571H47.3022L48.1274 62.7539C48.215 62.9008 48.3107 63.0425 48.414 63.1785H21.5868C21.1114 63.1779 20.6555 62.9859 20.3193 62.6444C19.9831 62.3029 19.794 61.84 19.7934 61.3571ZM61.8684 60.3794L61.0195 61.8167C60.7731 62.2311 60.4257 62.5741 60.0109 62.8126C59.5961 63.0511 59.1278 63.1772 58.6512 63.1785C58.2883 63.1796 57.9289 63.1075 57.5937 62.9665C57.2584 62.8255 56.9541 62.6183 56.6982 62.357L55.9765 61.6239C55.8932 61.5393 55.7944 61.4722 55.6856 61.4264C55.5768 61.3807 55.4601 61.3571 55.3424 61.3571C55.2246 61.3571 55.108 61.3807 54.9992 61.4264C54.8904 61.4722 54.7915 61.5393 54.7082 61.6239L53.9864 62.357C53.7305 62.6183 53.4262 62.8255 53.091 62.9665C52.7558 63.1075 52.3964 63.1796 52.0336 63.1785C51.5568 63.1772 51.0885 63.0513 50.6736 62.8127C50.2587 62.5742 49.9113 62.2311 49.6649 61.8167L48.8159 60.3794C47.7864 58.6288 47.1145 56.6856 46.8402 54.6656C46.5658 52.6456 46.6947 50.5903 47.2192 48.622C47.3883 47.992 47.7175 47.4182 48.1736 46.958C48.6297 46.4978 49.1969 46.1674 49.8183 45.9998C50.4397 45.8322 51.0935 45.8333 51.7144 46.003C52.3352 46.1728 52.9013 46.5051 53.3559 46.9668L54.7082 48.3403C54.7915 48.4249 54.8904 48.492 54.9992 48.5378C55.108 48.5836 55.2246 48.6071 55.3424 48.6071C55.4601 48.6071 55.5768 48.5836 55.6856 48.5378C55.7944 48.492 55.8932 48.4249 55.9765 48.3403L57.3288 46.9668C57.7835 46.5051 58.3495 46.1727 58.9703 46.003C59.5912 45.8333 60.245 45.8322 60.8664 45.9998C61.4878 46.1674 62.0549 46.4978 62.5111 46.958C62.9672 47.4182 63.2963 47.992 63.4655 48.622C63.9898 50.5903 64.1187 52.6457 63.8443 54.6656C63.5699 56.6856 62.8979 58.6288 61.8684 60.3794Z" fill="white"/>
<path d="M61.2333 55.9256C61.1197 55.8939 61.0011 55.8853 60.8842 55.9002C60.7674 55.9151 60.6545 55.9532 60.5522 56.0124C60.4498 56.0716 60.36 56.1507 60.2877 56.2452C60.2155 56.3397 60.1623 56.4477 60.1312 56.5631C60.0534 56.8513 59.9664 57.1419 59.8733 57.427C59.8351 57.5407 59.8194 57.661 59.8271 57.7809C59.8348 57.9008 59.8659 58.018 59.9184 58.1257C59.9709 58.2334 60.0439 58.3294 60.1332 58.4083C60.2224 58.4872 60.3262 58.5474 60.4384 58.5854C60.5507 58.6234 60.6692 58.6385 60.7872 58.6297C60.9053 58.6209 61.0204 58.5886 61.126 58.5344C61.2317 58.4802 61.3257 58.4054 61.4027 58.3141C61.4797 58.2229 61.5382 58.1171 61.5747 58.0028C61.6784 57.687 61.7747 57.3653 61.8611 57.0453C61.8923 56.9299 61.9009 56.8094 61.8862 56.6906C61.8716 56.5719 61.834 56.4573 61.7757 56.3533C61.7174 56.2493 61.6395 56.158 61.5464 56.0846C61.4534 56.0112 61.347 55.9572 61.2333 55.9256Z" fill="white"/>
<path d="M61.6201 50.4287C61.3823 50.4287 61.1542 50.5247 60.986 50.6955C60.8178 50.8662 60.7234 51.0979 60.7234 51.3394V52.1022C60.7233 52.7263 60.6891 53.35 60.621 53.9703C60.6065 54.0899 60.6154 54.2112 60.6474 54.3272C60.6793 54.4433 60.7336 54.5518 60.8071 54.6463C60.8806 54.7409 60.9719 54.8198 61.0756 54.8783C61.1794 54.9368 61.2935 54.9738 61.4114 54.9871C61.5293 55.0005 61.6487 54.99 61.7626 54.9562C61.8765 54.9224 61.9826 54.8659 62.0749 54.7902C62.1671 54.7144 62.2436 54.6208 62.3 54.5147C62.3564 54.4087 62.3915 54.2923 62.4032 54.1724C62.4787 53.485 62.5166 52.7938 62.5167 52.1022V51.3394C62.5167 51.0979 62.4222 50.8663 62.2541 50.6955C62.0859 50.5247 61.8579 50.4287 61.6201 50.4287Z" fill="white"/>
<path d="M30.8155 28.838L27.8628 31.837L27.6001 31.5702C27.5169 31.4856 27.418 31.4185 27.3092 31.3728C27.2004 31.327 27.0838 31.3034 26.9661 31.3034C26.8483 31.3034 26.7317 31.327 26.6229 31.3728C26.5141 31.4185 26.4153 31.4856 26.332 31.5702C26.2487 31.6548 26.1827 31.7552 26.1376 31.8657C26.0925 31.9762 26.0693 32.0946 26.0693 32.2142C26.0693 32.3338 26.0925 32.4522 26.1376 32.5627C26.1827 32.6732 26.2487 32.7736 26.332 32.8582L27.2287 33.7689C27.312 33.8535 27.4108 33.9205 27.5196 33.9663C27.6284 34.0121 27.745 34.0356 27.8628 34.0356C27.9805 34.0356 28.0971 34.0121 28.2059 33.9663C28.3147 33.9205 28.4136 33.8535 28.4969 33.7689L32.0837 30.126C32.2518 29.9552 32.3463 29.7236 32.3463 29.482C32.3463 29.2405 32.2518 29.0088 32.0837 28.838C31.9155 28.6672 31.6874 28.5713 31.4496 28.5713C31.2118 28.5713 30.9837 28.6672 30.8155 28.838Z" fill="white"/>
</svg>
