<svg width="83" height="83" viewBox="0 0 83 83" fill="none" xmlns="http://www.w3.org/2000/svg">
<circle cx="41.5" cy="41.5" r="41.5" fill="#B0CC0D"/>
<path d="M51.9043 15C49.5118 15 47.173 15.7095 45.1837 17.0387C43.1944 18.3678 41.644 20.2571 40.7284 22.4675C39.8129 24.6778 39.5733 27.1101 40.0401 29.4566C40.5068 31.8031 41.6589 33.9585 43.3506 35.6503C45.0424 37.342 47.1978 38.4941 49.5443 38.9608C51.8908 39.4276 54.3231 39.188 56.5334 38.2725C58.7438 37.3569 60.6331 35.8065 61.9623 33.8172C63.2915 31.8279 64.0009 29.4891 64.0009 27.0966C63.9973 23.8895 62.7216 20.8148 60.4539 18.547C58.1861 16.2793 55.1114 15.0036 51.9043 15ZM51.9043 37.5804C49.8308 37.5804 47.8038 36.9655 46.0798 35.8136C44.3558 34.6616 43.012 33.0243 42.2185 31.1086C41.425 29.1929 41.2174 27.085 41.622 25.0514C42.0265 23.0177 43.025 21.1497 44.4911 19.6835C45.9573 18.2173 47.8253 17.2188 49.859 16.8143C51.8926 16.4098 54.0006 16.6174 55.9162 17.4109C57.8319 18.2044 59.4692 19.5481 60.6212 21.2722C61.7732 22.9962 62.388 25.0232 62.388 27.0966C62.3848 29.8761 61.2793 32.5408 59.3139 34.5062C57.3485 36.4716 54.6837 37.5772 51.9043 37.5804Z" fill="white"/>
<path d="M55.1704 20.6451C53.9581 20.6415 52.79 21.1004 51.9043 21.9282C51.22 21.2924 50.3651 20.8701 49.4443 20.7132C48.5236 20.5563 47.577 20.6715 46.7208 21.0447C45.8646 21.418 45.1359 22.033 44.6242 22.8143C44.1124 23.5957 43.8398 24.5094 43.8398 25.4434C43.8402 26.3308 44.0283 27.208 44.3917 28.0174C44.7552 28.8269 45.2858 29.5503 45.9487 30.1402L51.368 34.9579C51.5157 35.0894 51.7065 35.162 51.9043 35.162C52.102 35.162 52.2929 35.0894 52.4406 34.9579L57.8598 30.1402C58.5227 29.5503 59.0533 28.8269 59.4168 28.0174C59.7803 27.208 59.9683 26.3308 59.9687 25.4434C59.9672 24.1713 59.4612 22.9517 58.5616 22.0522C57.6621 21.1526 56.4425 20.6466 55.1704 20.6451ZM56.7881 28.9345L51.9043 33.2756L47.0205 28.9345C46.5275 28.4962 46.133 27.9586 45.8628 27.3568C45.5926 26.7551 45.4528 26.103 45.4527 25.4434C45.4528 24.8134 45.6396 24.1976 45.9896 23.6738C46.3396 23.1499 46.8371 22.7417 47.4192 22.5006C48.0012 22.2595 48.6417 22.1964 49.2596 22.3193C49.8775 22.4422 50.4451 22.7456 50.8906 23.191L51.3341 23.6346C51.4853 23.7858 51.6904 23.8707 51.9043 23.8707C52.1181 23.8707 52.3232 23.7858 52.4744 23.6346L52.918 23.191C53.3635 22.7456 53.931 22.4422 54.5489 22.3193C55.1668 22.1964 55.8073 22.2595 56.3894 22.5006C56.9714 22.7417 57.4689 23.1499 57.8189 23.6738C58.169 24.1976 58.3558 24.8134 58.3558 25.4434C58.3557 26.103 58.216 26.7551 57.9458 27.3568C57.6755 27.9586 57.281 28.4962 56.7881 28.9345Z" fill="white"/>
<path d="M14.8064 61.7739H22.8709C23.0848 61.7739 23.2899 61.689 23.4411 61.5377C23.5923 61.3865 23.6773 61.1814 23.6773 60.9675H40.6126C41.6235 60.9663 42.5971 60.5859 43.3412 59.9016C44.0852 59.2173 44.5455 58.2788 44.6311 57.2715C45.6824 56.1138 46.2626 54.6047 46.2577 53.0409V52.4305L46.5448 52.1434C46.9664 51.724 47.3007 51.2252 47.5283 50.6758C47.7558 50.1264 47.8722 49.5373 47.8706 48.9426C47.8695 48.2401 47.7061 47.5474 47.3932 46.9184L47.1512 46.4402C47.6235 45.3671 47.8684 44.2078 47.8706 43.0354V42.9177C47.8706 42.1438 47.5632 41.4017 47.016 40.8545C46.4688 40.3074 45.7267 40 44.9529 40H37.0788C36.9933 40.0002 36.9091 39.9784 36.8345 39.9367C36.7598 39.8951 36.6971 39.835 36.6523 39.7621C36.6075 39.6893 36.5822 39.6061 36.5788 39.5207C36.5754 39.4352 36.594 39.3504 36.6328 39.2742L37.3344 37.8726C38.4261 35.682 38.9961 33.2685 38.9997 30.821C38.9997 30.0472 38.6923 29.3051 38.1451 28.7579C37.598 28.2107 36.8558 27.9033 36.082 27.9033H34.9675C34.3259 27.9033 33.7105 28.1582 33.2568 28.6119C32.8031 29.0656 32.5482 29.681 32.5482 30.3226C32.5507 31.2399 32.3713 32.1486 32.0202 32.9961C31.6692 33.8435 31.1535 34.6129 30.503 35.2597L28.2289 37.5339C26.8954 38.8707 25.8896 40.4981 25.2902 42.2886C25.1638 42.6684 24.9496 43.0131 24.665 43.2946C24.3804 43.5761 24.0335 43.7865 23.6523 43.9088C23.6253 43.7203 23.5316 43.5477 23.3882 43.4224C23.2449 43.2971 23.0613 43.2273 22.8709 43.2257H14.8064C14.5926 43.2257 14.3874 43.3107 14.2362 43.4619C14.085 43.6132 14 43.8183 14 44.0322V60.9675C14 61.1814 14.085 61.3865 14.2362 61.5377C14.3874 61.689 14.5926 61.7739 14.8064 61.7739ZM26.8224 42.7983C27.3423 41.2452 28.2148 39.8336 29.3716 38.6742L31.6458 36.4C32.4462 35.6037 33.0806 34.6566 33.5124 33.6134C33.9441 32.5702 34.1646 31.4517 34.1611 30.3226C34.1611 30.1088 34.246 29.9036 34.3973 29.7524C34.5485 29.6012 34.7536 29.5162 34.9675 29.5162H36.082C36.428 29.5164 36.7598 29.654 37.0044 29.8986C37.2491 30.1433 37.3866 30.475 37.3868 30.821C37.3842 33.0194 36.8725 35.1873 35.8917 37.1548L35.1901 38.5572C35.0293 38.8792 34.9535 39.2368 34.9698 39.5963C34.9861 39.9558 35.0939 40.3052 35.2831 40.6112C35.4723 40.9173 35.7366 41.17 36.0508 41.3453C36.3651 41.5206 36.7189 41.6127 37.0788 41.6128H44.9529C45.1555 41.6131 45.3554 41.6603 45.5367 41.7507C45.7539 41.8586 45.9365 42.025 46.0639 42.2312C46.1913 42.4375 46.2585 42.6753 46.2577 42.9177V43.0354C46.2552 44.0964 46.0068 45.1423 45.5319 46.091C45.476 46.203 45.4469 46.3264 45.4469 46.4515C45.4469 46.5766 45.476 46.7 45.5319 46.812L45.9464 47.6394C46.1492 48.044 46.2557 48.49 46.2577 48.9426C46.2587 49.3254 46.1838 49.7046 46.0373 50.0582C45.8909 50.4119 45.6758 50.733 45.4045 51.0031L44.8811 51.5264C44.7299 51.6776 44.6449 51.8827 44.6448 52.0966V53.0409C44.6467 53.6585 44.5259 54.2704 44.2896 54.841C44.0533 55.4116 43.7062 55.9296 43.2682 56.3651C43.117 56.5163 43.032 56.7214 43.0319 56.9353C43.0319 57.5769 42.777 58.1923 42.3233 58.646C41.8696 59.0997 41.2543 59.3546 40.6126 59.3546H23.6773V45.558C24.399 45.4177 25.0704 45.0883 25.623 44.6034C26.1756 44.1186 26.5896 43.4956 26.8224 42.7983ZM15.6129 44.8386H22.0644V60.161H15.6129V44.8386Z" fill="white"/>
</svg>
