<svg width="83" height="83" viewBox="0 0 83 83" fill="none" xmlns="http://www.w3.org/2000/svg">
<circle cx="41.5" cy="41.5" r="41.5" fill="#B0CC0D"/>
<path d="M46.329 24.2126L43.779 19.9626C43.6254 19.7065 43.3488 19.5499 43.0502 19.55H37.9502V17.85C37.9503 17.3807 37.5699 17.0001 37.1006 17H37.1002H21.8002C21.3309 16.9999 20.9503 17.3803 20.9502 17.8496V17.85V29.75C20.9501 30.2193 21.3305 30.5999 21.7998 30.6H21.8002H24.3502C24.3502 32.0083 25.4919 33.15 26.9002 33.15C28.3085 33.15 29.4502 32.0083 29.4502 30.6H38.8002C38.8002 32.0083 39.9419 33.15 41.3502 33.15C42.7585 33.15 43.9002 32.0083 43.9002 30.6H45.6002C46.0695 30.6001 46.4501 30.2197 46.4502 29.7504V29.75V24.65C46.4503 24.4958 46.4084 24.3446 46.329 24.2126ZM26.9002 31.45C26.4308 31.45 26.0502 31.0694 26.0502 30.6C26.0502 30.1306 26.4308 29.75 26.9002 29.75C27.3696 29.75 27.7502 30.1306 27.7502 30.6C27.7498 31.0692 27.3694 31.4496 26.9002 31.45ZM36.2502 28.9H28.787C27.8652 27.858 26.2732 27.7605 25.2311 28.6823C25.1542 28.7504 25.0815 28.8231 25.0134 28.9H22.6502V18.7H36.2502V28.9ZM41.3502 21.25H42.5688L43.5889 22.95H41.3502V21.25ZM41.3502 31.45C40.8808 31.45 40.5002 31.0694 40.5002 30.6C40.5002 30.1306 40.8808 29.75 41.3502 29.75C41.8196 29.75 42.2002 30.1306 42.2002 30.6C42.1998 31.0692 41.8194 31.4496 41.3502 31.45ZM44.7502 28.9H43.237C42.3152 27.858 40.7232 27.7605 39.6811 28.6823C39.6042 28.7504 39.5315 28.8231 39.4634 28.9H37.9502V21.25H39.6502V23.8C39.6501 24.2693 40.0305 24.6499 40.4998 24.65H40.5002H44.609L44.7502 24.8853V28.9Z" fill="white"/>
<path d="M65.7066 54.6074L60.8996 50.4416V44.1999C60.8997 43.7305 60.5194 43.35 60.05 43.3499H60.0496H56.6496C56.1803 43.3497 55.7997 43.7301 55.7996 44.1994V44.1999V46.0218L52.9566 43.5574C52.6367 43.2809 52.1625 43.2809 51.8427 43.5574L39.0927 54.6074C38.738 54.9153 38.7002 55.4524 39.0082 55.807C39.1696 55.9929 39.4035 56.0996 39.6497 56.0999H43.8997V66.2999C43.8996 66.7692 44.28 67.1497 44.7493 67.1499H44.7497H60.0497C60.519 67.15 60.8996 66.7696 60.8997 66.3003V66.2999V56.0999H65.1497C65.6194 56.0995 65.9998 55.7185 65.9995 55.2489C65.9993 55.0027 65.8924 54.7688 65.7066 54.6074ZM54.0996 65.4499H50.6996V61.1999C50.6996 60.2609 51.4607 59.4999 52.3996 59.4999C53.3386 59.4999 54.0996 60.2609 54.0996 61.1999V65.4499ZM60.0496 54.3999C59.5803 54.3997 59.1997 54.7801 59.1996 55.2494V55.2499V65.4499H55.7996V61.1999C55.7996 59.3221 54.2774 57.7999 52.3996 57.7999C50.5219 57.7999 48.9996 59.3221 48.9996 61.1999V65.4499H45.5996V55.2499C45.5997 54.7805 45.2194 54.4 44.75 54.3999H44.7496H41.9282L52.3996 45.3246L56.0927 48.5258C56.4476 48.8332 56.9847 48.7946 57.2921 48.4397C57.4259 48.2852 57.4995 48.0876 57.4996 47.8833V45.0499H59.1996V50.8296C59.1996 51.0761 59.3065 51.3105 59.4927 51.4721L62.8711 54.3999H60.0496Z" fill="white"/>
<path d="M19.25 19.5503H15V21.2503H19.25V19.5503Z" fill="white"/>
<path d="M19.25 22.95H15V24.65H19.25V22.95Z" fill="white"/>
<path d="M19.25 26.3501H15V28.0501H19.25V26.3501Z" fill="white"/>
<path d="M59.2 25.5H48.15V27.2H59.2C62.0167 27.2 64.3 29.4833 64.3 32.3C64.3 35.1167 62.0167 37.4 59.2 37.4H27.75C20.7084 37.4 15 43.1084 15 50.15C15 57.1916 20.7084 62.9 27.75 62.9H42.2V61.2H27.75C21.6472 61.2 16.7 56.2528 16.7 50.15C16.7 44.0472 21.6472 39.1 27.75 39.1H59.2C62.9555 39.1 66 36.0555 66 32.3C66 28.5445 62.9555 25.5 59.2 25.5Z" fill="white"/>
</svg>
