<svg width="83" height="83" viewBox="0 0 83 83" fill="none" xmlns="http://www.w3.org/2000/svg">
<circle cx="41.5" cy="41.5" r="41.5" fill="#B0CC0D"/>
<path d="M63.768 53.5824L63.2023 53.4521C68.6851 48.9401 69.8535 38.9215 64.6892 33.7013C62.702 31.6936 61.515 28.5163 61.515 25.201C61.515 20.3957 58.3681 16.4855 54.4992 16.4855C50.6314 16.4855 47.4834 20.3957 47.4834 25.201C47.4834 26.293 47.3548 27.369 47.1104 28.3931C43.5061 24.2143 37.7825 23.7353 33.9552 26.4065V16.6047C33.9552 16.1799 33.612 15.8351 33.1895 15.8351C32.7666 15.8351 32.4234 16.1799 32.4234 16.6047V19.6262C30.1355 15.4801 25.9722 14.371 21.3098 15.3139C20.8389 15.4095 20.5703 15.9133 20.752 16.3604C20.7948 16.4652 21.8267 18.9635 23.8203 21.1509C26.1797 23.7401 29.108 25.0257 32.4234 24.1035V26.4065C27.9241 23.2662 20.3906 24.3936 17.2957 31.5542C17.1275 31.9439 17.306 32.3962 17.694 32.5656C18.0824 32.7349 18.5327 32.5564 18.7013 32.1663C21.5336 25.6147 28.3062 25.0855 31.8982 27.9273C32.646 28.5593 33.7366 28.5561 34.4805 27.9273C38.5696 24.6921 45.6437 26.1001 48.0678 33.1789C49.371 36.9915 49.1104 40.9786 46.8482 45.1028C45.9484 46.7196 45.2089 48.0638 44.5979 49.1832C39.8538 48.1567 39.1766 47.7813 37.5619 47.8163C37.139 47.8247 36.803 48.1754 36.8121 48.6002C36.8204 49.0262 37.1687 49.3646 37.5936 49.3542C37.8714 49.3482 38.1868 49.3626 38.5196 49.4036L38.0602 53.5482C38.0134 53.9702 38.3161 54.3508 38.7366 54.3978C39.1587 54.4448 39.536 54.1392 39.5829 53.7183L40.0272 49.7117C43.0872 50.4134 45.0788 50.8709 47.4516 51.4161L47.2326 53.3923C47.1858 53.8148 47.4885 54.1954 47.9091 54.2424C48.3312 54.2894 48.7085 53.9837 48.7553 53.5625L48.9548 51.7608C49.4281 51.8696 60.301 54.3643 60.437 54.3958L59.8455 59.7307C59.7987 60.1531 60.1018 60.5337 60.5219 60.5807C60.9445 60.6278 61.3214 60.3221 61.3682 59.9013L61.9407 54.7409L63.4272 55.0824C65.27 55.5049 66.4872 57.2245 66.2769 59.1122C66.0687 60.9896 64.4924 62.4087 62.6123 62.4127L54.7713 62.4279L55.0498 59.9188C55.0966 59.4964 54.7939 59.1158 54.3734 59.0688C53.9525 59.0222 53.574 59.3258 53.5272 59.7482L53.2296 62.431L45.7147 62.4454L45.9762 60.0866C46.023 59.6646 45.7203 59.284 45.2998 59.237C44.8804 59.1895 44.5003 59.494 44.4535 59.9164C44.3885 60.5042 44.1794 62.386 44.173 62.4486L40.5751 62.4554L41.0305 58.3495C41.0773 57.9274 40.7746 57.5469 40.3541 57.4998C39.9332 57.4524 39.5547 57.7569 39.5079 58.1793L39.033 62.4585C39.0254 62.4585 39.0199 62.4585 39.0155 62.4585H39.0139H39.0104H39.0056C38.956 62.4585 38.7156 62.4589 37.7369 62.4609C34.73 62.4609 32.1525 60.4006 31.4197 57.5536C30.6679 54.6457 31.9843 51.3986 34.9474 49.9842C35.3295 49.8017 35.4926 49.343 35.3108 48.9593C35.1291 48.5755 34.6725 48.4113 34.2905 48.5942C32.7972 49.306 31.5923 50.4286 30.7905 51.8011C29.2401 51.0244 27.4667 49.8025 26.5209 48.0032C25.2985 45.6707 21.7732 46.5467 21.7613 49.18L19.3611 44.7968C17.7158 41.794 17.1132 38.4237 17.8293 34.9455C17.915 34.5291 17.6484 34.1218 17.2338 34.0357C16.8192 33.9496 16.4145 34.2174 16.3288 34.6339C15.5608 38.3664 16.144 42.116 18.0181 45.5388L21.2908 51.5137L18.8925 51.2451C17.5047 51.0901 16.2562 52.092 16.1019 53.4868C15.948 54.8772 16.9477 56.1349 18.3327 56.2899L22.3036 56.7339C21.3189 57.6194 20.5263 58.422 20.6258 59.6877C20.798 61.9249 23.6001 62.8571 25.0645 61.1395C26.2697 59.7227 28.153 58.8476 30.0621 58.3754C31.0999 61.634 34.1476 64 37.7369 64C38.904 63.9976 61.2047 63.9546 62.6143 63.9518C65.5101 63.9462 67.8325 61.589 67.8325 58.6966C67.8321 56.2346 66.1611 54.1312 63.768 53.5824ZM22.5885 16.6561C27.6821 15.9575 30.894 18.396 31.9668 22.6334C27.817 23.7556 24.5535 20.4603 22.5885 16.6561ZM61.2043 52.9934L46.1567 49.5399C46.5915 48.7397 47.0739 47.8566 47.6111 46.885C49.0298 49.3398 51.6748 50.9937 54.6971 50.9937C58.5855 50.9937 61.9613 48.2176 62.723 44.3927C62.8059 43.9762 62.5362 43.571 62.1216 43.4881C61.7058 43.4048 61.3035 43.6746 61.2206 44.091C60.6017 47.1986 57.8583 49.455 54.6971 49.455C51.8986 49.455 49.4984 47.7099 48.5169 45.2463C49.7896 42.813 50.3993 40.2418 50.3787 37.6913C54.2222 34.39 60.1482 36.4722 61.1992 41.3496C61.2892 41.7653 61.6955 42.0291 62.1105 41.9386C62.5239 41.8486 62.7865 41.4389 62.6964 41.0237C62.3076 39.2168 61.3023 37.5741 59.8693 36.3985C57.1466 34.1664 53.2546 33.9146 50.2573 35.8673C50.0022 33.8448 49.3329 31.7371 48.2637 29.9812C48.7549 28.4936 49.0155 26.8744 49.0155 25.201C49.0155 21.6507 51.217 18.0246 54.4992 18.0246C57.7464 18.0246 59.9828 21.6021 59.9828 25.201C59.9828 28.9686 61.3023 32.462 63.6026 34.7869C67.5921 38.8167 67.2061 46.2984 63.7406 50.7056C62.9876 51.6628 62.1307 52.4323 61.2043 52.9934ZM29.736 56.8602C27.5536 57.3934 25.3453 58.4415 23.9001 60.1392C23.5434 60.558 22.9142 60.607 22.4976 60.2492C22.0799 59.8893 22.0311 59.2597 22.3885 58.8412C23.0554 58.0582 23.8544 57.3767 24.7046 56.8283C25.3077 56.4366 25.0891 55.4973 24.3738 55.418C23.7104 55.3435 19.004 54.8162 18.5021 54.76C17.9578 54.6995 17.5635 54.2041 17.6238 53.6574C17.6841 53.1166 18.1661 52.7145 18.7227 52.775C18.7259 52.7754 18.7291 52.7754 18.7318 52.7758L18.7275 52.7754C18.731 52.7758 18.737 52.7766 18.7457 52.7774H18.7441C18.7525 52.7782 18.7584 52.7786 18.762 52.7794C18.7592 52.779 18.7552 52.7786 18.7509 52.7778C18.9076 52.7954 19.8228 52.8978 24.0572 53.372C24.3008 53.3565 25.043 53.6733 25.3676 53.0046C25.5096 52.7113 25.4525 52.3614 25.2255 52.1287C24.4821 51.3671 23.8703 50.5342 23.4077 49.6539C23.1514 49.1665 23.3383 48.5611 23.8223 48.3037H23.8235C24.3131 48.0451 24.9097 48.2352 25.1664 48.7214C26.2951 50.8697 28.3653 52.2988 30.1466 53.1883C29.7399 54.3404 29.588 55.6204 29.736 56.8602Z" fill="white"/>
</svg>
