<svg width="83" height="83" viewBox="0 0 83 83" fill="none" xmlns="http://www.w3.org/2000/svg">
<circle cx="41.5" cy="41.5" r="41.5" fill="#B0CC0D"/>
<path d="M53.1944 26.2631C52.9792 26.2655 52.7704 26.1924 52.6065 26.0573C52.4425 25.9223 52.3345 25.7344 52.3022 25.5282C51.717 21.8251 52.3803 18.0378 54.1936 14.7292H28.0264C29.4728 17.3912 30.1916 20.3678 30.1141 23.3753C30.1141 23.6046 30.0201 23.8245 29.8527 23.9867C29.6854 24.1488 29.4585 24.2399 29.2219 24.2399C28.9853 24.2399 28.7583 24.1488 28.591 23.9867C28.4237 23.8245 28.3297 23.6046 28.3297 23.3753C28.4028 20.1702 27.5065 17.0144 25.7514 14.2969C25.6733 14.1659 25.6321 14.0172 25.6318 13.8659C25.6316 13.7146 25.6724 13.5658 25.75 13.4346C25.8277 13.3033 25.9396 13.194 26.0744 13.1178C26.2093 13.0415 26.3625 13.0009 26.5186 13H55.6835C55.8407 12.9994 55.9953 13.0391 56.1316 13.115C56.2679 13.1909 56.3811 13.3004 56.4597 13.4323C56.538 13.5637 56.5792 13.7128 56.5792 13.8646C56.5792 14.0164 56.538 14.1655 56.4597 14.2969C54.3429 17.5627 53.4982 21.4533 54.0776 25.2688C54.0953 25.3812 54.09 25.4959 54.0619 25.6064C54.0338 25.7168 53.9835 25.8208 53.9139 25.9123C53.8443 26.0039 53.7567 26.0812 53.6562 26.1399C53.5557 26.1986 53.4442 26.2376 53.3282 26.2545L53.1944 26.2631Z" fill="white"/>
<path d="M54.7344 68.2632H41.9093C41.6918 68.2656 41.4807 68.1903 41.315 68.051C41.1492 67.9116 41.04 67.7178 41.0074 67.5051C40.5398 63.8903 40.72 60.2222 41.5395 56.6691C40.5365 56.8697 39.5031 56.8697 38.5001 56.6691C39.3088 60.2236 39.4888 63.8898 39.0322 67.5051C38.9996 67.7178 38.8903 67.9116 38.7246 68.051C38.5589 68.1903 38.3478 68.2656 38.1303 68.2632H25.251C25.0936 68.2623 24.9392 68.2206 24.8032 68.1424C24.6671 68.0642 24.5541 67.9521 24.4754 67.8173C15.2579 51.9779 19.6321 42.2478 23.4833 33.6682C23.844 32.8566 24.2048 32.0539 24.5475 31.2602C24.5905 31.1479 24.656 31.0454 24.7401 30.9588C24.8241 30.8722 24.9249 30.8032 25.0365 30.7561C25.1482 30.7089 25.2683 30.6845 25.3896 30.6843C25.511 30.6842 25.6312 30.7082 25.7429 30.7551C25.8547 30.8019 25.9557 30.8706 26.04 30.957C26.1243 31.0433 26.1901 31.1456 26.2334 31.2578C26.2767 31.3699 26.2967 31.4895 26.2922 31.6094C26.2877 31.7294 26.2587 31.8472 26.207 31.9558C25.8643 32.7585 25.5036 33.5701 25.1338 34.3906C21.3097 42.8989 17.3593 51.6926 25.7832 66.4973H37.3546C37.658 62.82 37.3379 59.1184 36.4076 55.5454C36.3686 55.3828 36.3765 55.2126 36.4305 55.0542C36.4845 54.8958 36.5825 54.7556 36.7132 54.6496C36.8439 54.5436 37.0021 54.4761 37.1697 54.4547C37.3373 54.4333 37.5077 54.4589 37.6613 54.5287C38.4031 54.8634 39.2089 55.0367 40.0243 55.0367C40.8397 55.0367 41.6455 54.8634 42.3873 54.5287C42.5423 54.4579 42.7144 54.432 42.8836 54.4541C43.0528 54.4762 43.2122 54.5454 43.3433 54.6535C43.4719 54.7601 43.5679 54.9 43.6205 55.0576C43.673 55.2151 43.6801 55.384 43.6409 55.5454C42.6863 59.1082 42.3749 62.8097 42.721 66.4795H54.2113C62.6712 51.6836 58.5675 42.5421 55.2665 35.1843C55.1685 34.9679 55.1614 34.7218 55.2468 34.5002C55.3322 34.2786 55.5031 34.0996 55.722 34.0026C55.9409 33.9056 56.1897 33.8986 56.4139 33.9831C56.638 34.0675 56.819 34.2366 56.917 34.453C60.227 41.8465 64.7727 51.9779 55.5191 67.8173C55.4396 67.9534 55.3252 68.0663 55.1874 68.1446C55.0496 68.2229 54.8933 68.2638 54.7344 68.2632Z" fill="white"/>
<path d="M41.1139 57.2106C40.0582 57.2132 39.0144 56.9905 38.0546 56.558C37.9033 56.49 37.7746 56.3814 37.6832 56.2448C34.1906 51.0242 28.8412 47.422 21.8561 45.5078C21.6414 45.4484 21.4574 45.3115 21.341 45.1243C21.2246 44.9371 21.1843 44.7136 21.2283 44.4985C21.5456 42.9954 21.9862 41.5201 22.5458 40.0871C22.6274 39.8779 22.7879 39.7078 22.9937 39.6122C23.1996 39.5166 23.4351 39.5028 23.651 39.5737C34.966 43.3237 47.2176 43.3237 58.5326 39.5737C58.7497 39.5002 58.9873 39.5127 59.1952 39.6085C59.4031 39.7043 59.565 39.8759 59.6467 40.0871C60.207 41.5213 60.6534 42.9962 60.9818 44.4985C61.0279 44.7161 60.9876 44.9428 60.8692 45.1321C60.7509 45.3214 60.5633 45.4589 60.3452 45.5165C53.2716 47.422 47.9664 51.0329 44.5269 56.2448C44.4317 56.3781 44.304 56.4858 44.1555 56.558C43.2008 56.9873 42.1636 57.2099 41.1139 57.2106ZM39.0095 55.0701C40.3559 55.6094 41.8631 55.6094 43.2094 55.0701C46.7462 49.8495 52.0514 46.1168 59.125 44.0634C58.9216 43.1933 58.6564 42.3754 58.3469 41.4531C47.1668 44.9728 35.1494 44.9728 23.9693 41.4531C23.651 42.3232 23.3946 43.1933 23.1824 44.0634C30.0968 46.1168 35.4374 49.8147 39.0272 55.0701H39.0095Z" fill="white"/>
<path d="M57.9063 37.3159H42.1078C30.197 37.3159 21.2109 33.779 21.2109 29.0485V18.3054C21.2109 18.0708 21.304 17.8459 21.4697 17.6801C21.6354 17.5143 21.8602 17.4211 22.0945 17.4211C22.3289 17.4211 22.5536 17.5143 22.7193 17.6801C22.885 17.8459 22.9781 18.0708 22.9781 18.3054C22.9781 21.3824 30.8332 24.8043 42.1078 24.8043H57.9063C58.1406 24.8043 58.3654 24.8975 58.5311 25.0633C58.6968 25.2291 58.7899 25.454 58.7899 25.6885V36.4317C58.7899 36.6662 58.6968 36.8911 58.5311 37.0569C58.3654 37.2227 58.1406 37.3159 57.9063 37.3159ZM22.9781 21.7361V29.0485C22.9781 32.1167 30.8332 35.5475 42.1078 35.5475H57.0227V26.555H42.1078C33.3426 26.555 26.159 24.6363 22.9781 21.7361Z" fill="white"/>
<path d="M51.0525 37.3159C50.7594 37.3159 50.4783 37.2175 50.271 37.0423C50.0637 36.8672 49.9473 36.6296 49.9473 36.3819V31.6184C49.9473 31.3706 50.0637 31.1331 50.271 30.9579C50.4783 30.7827 50.7594 30.6843 51.0525 30.6843C51.3457 30.6843 51.6268 30.7827 51.8341 30.9579C52.0413 31.1331 52.1578 31.3706 52.1578 31.6184V36.3819C52.1578 36.6296 52.0413 36.8672 51.8341 37.0423C51.6268 37.2175 51.3457 37.3159 51.0525 37.3159Z" fill="white"/>
<path d="M46.6316 37.3159C46.3385 37.3159 46.0574 37.2247 45.8501 37.0623C45.6428 36.9 45.5264 36.6798 45.5264 36.4502V31.5501C45.5264 31.3205 45.6428 31.1003 45.8501 30.9379C46.0574 30.7755 46.3385 30.6843 46.6316 30.6843C46.9248 30.6843 47.2059 30.7755 47.4132 30.9379C47.6204 31.1003 47.7369 31.3205 47.7369 31.5501V36.4502C47.7369 36.6798 47.6204 36.9 47.4132 37.0623C47.2059 37.2247 46.9248 37.3159 46.6316 37.3159Z" fill="white"/>
<path d="M39.9998 37.3157C39.7067 37.3157 39.4255 37.2019 39.2183 36.9991C39.011 36.7964 38.8945 36.5215 38.8945 36.2348V29.5546C38.8945 29.2679 39.011 28.9929 39.2183 28.7902C39.4255 28.5875 39.7067 28.4736 39.9998 28.4736C40.2929 28.4736 40.5741 28.5875 40.7813 28.7902C40.9886 28.9929 41.1051 29.2679 41.1051 29.5546V36.2348C41.1051 36.5215 40.9886 36.7964 40.7813 36.9991C40.5741 37.2019 40.2929 37.3157 39.9998 37.3157Z" fill="white"/>
<path d="M35.5789 35.1052C35.2858 35.1052 35.0046 35.0195 34.7974 34.8669C34.5901 34.7143 34.4736 34.5073 34.4736 34.2915V29.2873C34.4736 29.0715 34.5901 28.8646 34.7974 28.712C35.0046 28.5594 35.2858 28.4736 35.5789 28.4736C35.872 28.4736 36.1532 28.5594 36.3604 28.712C36.5677 28.8646 36.6842 29.0715 36.6842 29.2873V34.2915C36.6842 34.5073 36.5677 34.7143 36.3604 34.8669C36.1532 35.0195 35.872 35.1052 35.5789 35.1052Z" fill="white"/>
<path d="M28.9471 35.1052C28.6539 35.1052 28.3728 35.0091 28.1655 34.838C27.9582 34.667 27.8418 34.435 27.8418 34.193V29.3858C27.8418 29.1439 27.9582 28.9119 28.1655 28.7408C28.3728 28.5697 28.6539 28.4736 28.9471 28.4736C29.2402 28.4736 29.5213 28.5697 29.7286 28.7408C29.9359 28.9119 30.0523 29.1439 30.0523 29.3858V34.193C30.0523 34.435 29.9359 34.667 29.7286 34.838C29.5213 35.0091 29.2402 35.1052 28.9471 35.1052Z" fill="white"/>
</svg>
